<?xml version="1.0" encoding="utf-8"?>
<!-- Uploaded to: SVG Repo, www.svgrepo.com, Generator: SVG Repo Mixer Tools -->
<svg fill="#000000" height="800px" width="800px" version="1.2" baseProfile="tiny" id="Layer_1" xmlns="http://www.w3.org/2000/svg" xmlns:xlink="http://www.w3.org/1999/xlink"
	  viewBox="0 0 256 256" xml:space="preserve">
<g>
	<circle cx="193.3" cy="143.6" r="16.8"/>
	<circle cx="172.6" cy="185.4" r="16.8"/>
	<path d="M145.8,205.3h-18.9H108c-11.5,0-18.7,9.5-18.7,21.4V256h12.9v-25.9c0-1.2,1-2,2-2c1.2,0,2,0.8,2,2v25.8h41.5v-25.8
		c0-1.2,1-2,2-2c1.2,0,2,1,2,2v25.8h12.9v-29.1C164.8,214.8,157.5,205.3,145.8,205.3z"/>
	<circle cx="150.5" cy="143.6" r="16.8"/>
	<path d="M199.9,185.4c0,9.3,7.5,16.8,16.8,16.8s16.8-7.5,16.8-16.8s-7.5-16.8-16.8-16.8S199.9,176.1,199.9,185.4z"/>
	<path d="M198.2,205.3c-11.5,0-18.7,9.5-18.7,21.4V256h12.9v-25.9c0-1.2,1-2,2-2c1.2,0,2,0.8,2,2v25.8h41.5v-25.8c0-1.2,1-2,2-2
		c1.2,0,2,1,2,2v25.8h12.9v-29.1c0.2-12.1-7.1-21.6-18.7-21.6h-18.9h-19V205.3z"/>
	<circle cx="40.6" cy="185.4" r="16.8"/>
	<path d="M15.6,255.9v-25.8c0-1.2,1-2,2-2c1.2,0,2,0.8,2,2v25.8h41.5v-25.8c0-1.2,1-2,2-2c1.2,0,2,1,2,2v25.8H78v-29.1
		c0.2-12.1-7.1-21.6-18.7-21.6H40.4H21.5c-11.5,0-18.7,9.5-18.7,21.4v29.3L15.6,255.9L15.6,255.9z"/>
	<path d="M110.1,185.4c0,9.3,7.5,16.8,16.8,16.8s16.8-7.5,16.8-16.8s-7.5-16.8-16.8-16.8S110.1,176.1,110.1,185.4z"/>
	<circle cx="62.1" cy="143.6" r="16.8"/>
	<circle cx="107.5" cy="143.6" r="16.8"/>
	<circle cx="84.9" cy="185.4" r="16.8"/>
</g>
<path d="M127.9,106.8c28.6,0.3,51.5-23.4,51.6-51.4c0.3-28.6-22.7-51.4-51.4-51.6S76.6,27.2,76.5,55.2
	C76.2,83.8,99.9,106.6,127.9,106.8z M152.4,34.8c5.1,0.3,8.8,3.9,8.6,9c-0.3,5.1-3.9,8.8-9,8.6c-5.1-0.3-8.8-3.9-8.6-9
	S147.3,34.6,152.4,34.8z M128.2,61.9c12.5,0.1,23.7,7.4,29.4,19.5c1,2.4-0.3,5.1-2.6,6.1c-2.4,1-5.1-0.3-6.8-2.8
	c-3.7-8-11.5-13.2-20.3-13.4s-16.4,5-20.1,13.1c-1.3,2.7-4.3,3.6-6.4,2.5c-2.7-1.3-3.8-3.7-2.5-6.4C104,69.2,115.7,61.7,128.2,61.9z
	 M105.3,34.8c5.1,0.3,8.8,3.9,8.6,9c-0.3,5.1-3.9,8.8-9,8.6c-4.4-0.1-8.8-3.9-8.6-9C96.4,39,100.2,34.6,105.3,34.8z"/>
</svg>